<svg xmlns="http://www.w3.org/2000/svg" viewBox="0 0 480 360" fill="none">
  <defs>
    <linearGradient id="bg" x1="0" x2="1" y1="0" y2="1">
      <stop offset="0" stop-color="#151a2c"/>
      <stop offset="1" stop-color="#0b0f1a"/>
    </linearGradient>
    <linearGradient id="accent" x1="0" x2="1" y1="0" y2="1">
      <stop offset="0" stop-color="#7c5cff"/>
      <stop offset="1" stop-color="#46e3b7"/>
    </linearGradient>
  </defs>
  <rect width="480" height="360" rx="32" fill="url(#bg)"/>
  <g opacity="0.6" stroke="#1f2937" stroke-width="2">
    <rect x="48" y="44" width="384" height="96" rx="16"/>
    <rect x="48" y="160" width="272" height="96" rx="16"/>
    <rect x="48" y="276" width="192" height="56" rx="16"/>
  </g>
  <g>
    <rect x="70" y="68" width="120" height="48" rx="12" fill="#121826" stroke="#1f2937"/>
    <rect x="206" y="68" width="180" height="48" rx="12" fill="#121826" stroke="#1f2937"/>
    <rect x="70" y="184" width="120" height="48" rx="12" fill="#121826" stroke="#1f2937"/>
    <rect x="206" y="184" width="96" height="48" rx="12" fill="#121826" stroke="#1f2937"/>
    <rect x="316" y="184" width="96" height="48" rx="12" fill="#121826" stroke="#1f2937"/>
  </g>
  <g fill="#94a3b8">
    <rect x="90" y="86" width="80" height="12" rx="6"/>
    <rect x="90" y="104" width="64" height="10" rx="5"/>
    <rect x="226" y="86" width="100" height="12" rx="6"/>
    <rect x="226" y="104" width="136" height="10" rx="5"/>
    <rect x="90" y="202" width="72" height="12" rx="6"/>
    <rect x="90" y="220" width="60" height="10" rx="5"/>
    <rect x="226" y="202" width="56" height="12" rx="6"/>
    <rect x="226" y="220" width="64" height="10" rx="5"/>
    <rect x="336" y="202" width="56" height="12" rx="6"/>
    <rect x="336" y="220" width="64" height="10" rx="5"/>
  </g>
  <path d="M260 310c24-34 52-66 108-66 32 0 56 12 72 30" stroke="url(#accent)" stroke-width="10" stroke-linecap="round" fill="none"/>
  <circle cx="438" cy="272" r="18" fill="#46e3b7"/>
  <circle cx="284" cy="312" r="10" fill="#7c5cff"/>
</svg>
