<svg xmlns="http://www.w3.org/2000/svg" viewBox="0 0 80 24" fill="none">
  <circle cx="16" cy="12" r="10" fill="#121826" stroke="#1f2937" stroke-width="2"/>
  <path d="M20 7.5c1.2 1.4 2.7 2.3 4.4 2.5v3.2c-1.7-.1-3.3-.8-4.4-1.9v4.1c0 3-2.4 5.4-5.4 5.4S9.2 18.4 9.2 15.4s2.4-5.4 5.4-5.4c.3 0 .6 0 .9.1v3.3c-.3-.1-.6-.1-.9-.1-1.2 0-2.2 1-2.2 2.2s1 2.2 2.2 2.2 2.2-1 2.2-2.2V6.2h3.2V7.5z" fill="#ff0050"/>
  <text x="34" y="16" fill="#e5e7eb" font-family="'Inter',sans-serif" font-size="12" font-weight="600">TikTok</text>
</svg>
